# xmcd
#
# Track frame offsets:
#	150
#	17798
#	26404
#	59914
#	77855
#	112988
#	135345
#	153077
#	186322
#	209891
#	221513
#	238506
#	252009
#	263659
#	274237
#
# Disc length: 3888 seconds
#
# Revision: 1
# Processed by: cddbd v1.5.2PL0 Copyright (c) Steve Scherf et al.
# Submitted via: audiograbber 1.83.01
#
DISCID=d50f2e0f
DTITLE=Martin Philippi Blues Band - Martin Philippi Blues Band
DYEAR=1977
DGENRE=Blues
TTITLE0=Hey, Baby, Hey
TTITLE1=Lonesome Road Blues
TTITLE2=Irene, Good Night
TTITLE3=Ramblin' On My Mind
TTITLE4=Nürnberg-Hersbruck Train Blues
TTITLE5=Automobile Blues
TTITLE6=I'm Wild About You
TTITLE7=I Don't Want Your Millions, Mister
TTITLE8=My Baby Don't Love Me
TTITLE9=Hoochie Coochie Man
TTITLE10=All Your Love
TTITLE11=Sugar Mama
TTITLE12=Rosalie
TTITLE13=Stormy Monday
TTITLE14=I Got My Mojo Workin'
EXTD=
EXTT0=
EXTT1=
EXTT2=
EXTT3=
EXTT4=
EXTT5=
EXTT6=
EXTT7=
EXTT8=
EXTT9=
EXTT10=
EXTT11=
EXTT12=
EXTT13=
EXTT14=
PLAYORDER=
